<svg width="112" height="27" viewBox="0 0 112 27" fill="none" xmlns="http://www.w3.org/2000/svg">
<rect y="2.83008" width="20.5963" height="20.5963" rx="2.6728" fill="#F39200"/>
<path d="M25.3507 20V5.7115H34.9099V7.98559H26.538L27.9669 6.51649V13.0771L26.538 11.8898H34.5477V14.1437H26.538L27.9669 12.9564V20H25.3507ZM42.8311 20.322C41.6773 20.322 40.6644 20.1006 39.7923 19.6579C38.9337 19.2151 38.2696 18.5913 37.8 17.7863C37.3438 16.9679 37.1158 16.0019 37.1158 14.8883V5.69138H39.732V14.8883C39.732 15.8946 40.0003 16.6727 40.5369 17.2228C41.0736 17.7729 41.8383 18.0479 42.8311 18.0479C43.824 18.0479 44.5887 17.7729 45.1254 17.2228C45.6754 16.6727 45.9505 15.8946 45.9505 14.8883V5.69138H48.5667V14.8883C48.5667 16.0019 48.3319 16.9679 47.8623 17.7863C47.3927 18.5913 46.7286 19.2151 45.87 19.6579C45.0247 20.1006 44.0118 20.322 42.8311 20.322ZM54.4475 20V7.98559H50.1005V5.7115H61.3905V7.98559H57.0637V20H54.4475ZM62.7896 20V5.7115H68.3239C70.0009 5.7115 71.309 6.11399 72.2482 6.91898C73.1873 7.72397 73.6569 8.83753 73.6569 10.2597C73.6569 11.2122 73.4423 12.0373 73.0129 12.735C72.5836 13.4192 71.9732 13.9425 71.1816 14.3047C70.39 14.667 69.4375 14.8481 68.3239 14.8481H65.4058V20H62.7896ZM65.4058 12.574H68.2031C69.0886 12.574 69.7662 12.3795 70.2357 11.9904C70.7187 11.6013 70.9602 11.0244 70.9602 10.2597C70.9602 9.50835 70.7187 8.94486 70.2357 8.5692C69.7662 8.18012 69.0886 7.98559 68.2031 7.98559H65.4058V12.574ZM76.1536 20V5.7115H78.7698V19.195L77.341 17.7259H85.5518V20H76.1536ZM86.3248 20L91.4767 5.7115H94.6765L99.8284 20H97.0914L95.9041 16.6191H90.2491L89.0617 20H86.3248ZM91.0138 14.3852H95.1393L93.0866 8.34783L91.0138 14.3852ZM103.488 20V14.3651L98.4973 5.7115H101.436L104.816 11.7891L108.177 5.7115H111.115L106.125 14.3651V20H103.488Z" fill="white"/>
<path d="M6.57205 19.2012V6.92199H14.787V8.87629H7.59243L8.82035 7.61378V13.2518L7.59243 12.2314H14.4757V14.1684H7.59243L8.82035 13.1481V19.2012H6.57205Z" fill="white"/>
</svg>
